<?xml version='1.0' encoding='UTF-8'?>
<!DOCTYPE svg PUBLIC "-//W3C//DTD SVG 1.0//EN" "http://www.w3.org/TR/2001/REC-SVG-20010904/DTD/svg10.dtd">
<svg viewBox="0 0 448 586" xmlns="http://www.w3.org/2000/svg" xmlns:inkspace="http://www.inkscape.org/namespaces/inkscape" xmlns:xlink="http://www.w3.org/1999/xlink" width="448px" height="586px">
  <defs id="defs_block">
    <filter height="1.504" id="filter_blur" inkspace:collect="always" width="1.1575" x="-0.07875" y="-0.252">
      <feGaussianBlur id="feGaussianBlur3780" inkspace:collect="always" stdDeviation="4.2" />
    </filter>
  </defs>
  <title>blockdiag</title>
  <desc>seqdiag {
  "User Agent" -&gt; "Timetable Backend" [label = "POST /api/session/\nBody: {username, password}"];
  "User Agent" &lt;- "Timetable Backend" [label = "token"]
  "User Agent"  -&gt; "Timetable Backend" [label = "POST /api/querytoken/ \n Authorization: Token {token}"];
  "User Agent" &lt;- "Timetable Backend" [label = "querytoken"]
  "User Agent"  -&gt; "Timetable Backend" [label = "GET /api/export/?token={querytoken}"]
  "User Agent" &lt;- "Timetable Backend" [label = "CSV File"]
}</desc>
  <rect fill="rgb(0,0,0)" height="410" style="filter:url(#filter_blur);opacity:0.7;fill-opacity:1" width="8" x="127" y="154" />
  <rect fill="rgb(0,0,0)" height="65" style="filter:url(#filter_blur);opacity:0.7;fill-opacity:1" width="8" x="319" y="154" />
  <rect fill="rgb(0,0,0)" height="65" style="filter:url(#filter_blur);opacity:0.7;fill-opacity:1" width="8" x="319" y="310" />
  <rect fill="rgb(0,0,0)" height="65" style="filter:url(#filter_blur);opacity:0.7;fill-opacity:1" width="8" x="319" y="453" />
  <rect fill="rgb(0,0,0)" height="40" stroke="rgb(0,0,0)" style="filter:url(#filter_blur);opacity:0.7;fill-opacity:1" width="128" x="67" y="46" />
  <rect fill="rgb(0,0,0)" height="40" stroke="rgb(0,0,0)" style="filter:url(#filter_blur);opacity:0.7;fill-opacity:1" width="128" x="259" y="46" />
  <path d="M 128 80 L 128 574" fill="none" stroke="rgb(0,0,0)" stroke-dasharray="8 4" />
  <rect fill="moccasin" height="410" stroke="rgb(0,0,0)" width="8" x="124" y="148" />
  <path d="M 320 80 L 320 574" fill="none" stroke="rgb(0,0,0)" stroke-dasharray="8 4" />
  <rect fill="moccasin" height="65" stroke="rgb(0,0,0)" width="8" x="316" y="148" />
  <rect fill="moccasin" height="65" stroke="rgb(0,0,0)" width="8" x="316" y="304" />
  <rect fill="moccasin" height="65" stroke="rgb(0,0,0)" width="8" x="316" y="447" />
  <rect fill="rgb(255,255,255)" height="40" stroke="rgb(0,0,0)" width="128" x="64" y="40" />
  <text fill="rgb(0,0,0)" font-family="sans-serif" font-size="11" font-style="normal" font-weight="normal" text-anchor="middle" textLength="61" x="128.5" y="66">User Agent</text>
  <rect fill="rgb(255,255,255)" height="40" stroke="rgb(0,0,0)" width="128" x="256" y="40" />
  <text fill="rgb(0,0,0)" font-family="sans-serif" font-size="11" font-style="normal" font-weight="normal" text-anchor="middle" textLength="103" x="320.5" y="66">Timetable Backend</text>
  <path d="M 136 148 L 312 148" fill="none" stroke="rgb(0,0,0)" />
  <polygon fill="rgb(0,0,0)" points="304,144 312,148 304,152" stroke="rgb(0,0,0)" />
  <path d="M 136 213 L 312 213" fill="none" stroke="rgb(0,0,0)" />
  <polygon fill="rgb(0,0,0)" points="144,209 136,213 144,217" stroke="rgb(0,0,0)" />
  <path d="M 136 304 L 312 304" fill="none" stroke="rgb(0,0,0)" />
  <polygon fill="rgb(0,0,0)" points="304,300 312,304 304,308" stroke="rgb(0,0,0)" />
  <path d="M 136 369 L 312 369" fill="none" stroke="rgb(0,0,0)" />
  <polygon fill="rgb(0,0,0)" points="144,365 136,369 144,373" stroke="rgb(0,0,0)" />
  <path d="M 136 447 L 312 447" fill="none" stroke="rgb(0,0,0)" />
  <polygon fill="rgb(0,0,0)" points="304,443 312,447 304,451" stroke="rgb(0,0,0)" />
  <path d="M 136 512 L 312 512" fill="none" stroke="rgb(0,0,0)" />
  <polygon fill="rgb(0,0,0)" points="144,508 136,512 144,516" stroke="rgb(0,0,0)" />
  <text fill="rgb(0,0,0)" font-family="sans-serif" font-size="11" font-style="normal" font-weight="normal" text-anchor="middle" textLength="109" x="194.5" y="133">POST /api/session/</text>
  <text fill="rgb(0,0,0)" font-family="sans-serif" font-size="11" font-style="normal" font-weight="normal" text-anchor="middle" textLength="158" x="219.0" y="146">Body: {username, password}</text>
  <text fill="rgb(0,0,0)" font-family="sans-serif" font-size="11" font-style="normal" font-weight="normal" text-anchor="middle" textLength="31" x="296.5" y="211">token</text>
  <text fill="rgb(0,0,0)" font-family="sans-serif" font-size="11" font-style="normal" font-weight="normal" text-anchor="middle" textLength="128" x="204.0" y="283">POST /api/querytoken/</text>
  <text fill="rgb(0,0,0)" font-family="sans-serif" font-size="11" font-style="normal" font-weight="normal" text-anchor="middle" textLength="170" x="225.0" y="296">Authorization: Token {token}</text>
  <text fill="rgb(0,0,0)" font-family="sans-serif" font-size="11" font-style="normal" font-weight="normal" text-anchor="middle" textLength="61" x="281.5" y="367">querytoken</text>
  <text fill="rgb(0,0,0)" font-family="sans-serif" font-size="11" font-style="normal" font-weight="normal" text-anchor="middle" textLength="170" x="225.0" y="432">GET /api/export/?token={quer</text>
  <text fill="rgb(0,0,0)" font-family="sans-serif" font-size="11" font-style="normal" font-weight="normal" text-anchor="middle" textLength="43" x="161.5" y="445">ytoken}</text>
  <text fill="rgb(0,0,0)" font-family="sans-serif" font-size="11" font-style="normal" font-weight="normal" text-anchor="middle" textLength="49" x="287.5" y="510">CSV File</text>
</svg>